<svg width="834" height="49" viewBox="0 0 834 49" fill="none" xmlns="http://www.w3.org/2000/svg">
<path d="M24.6775 48.0769C37.1441 48.0769 44.8797 41.9231 47.5648 32.3718L38.8063 30.641C37.1441 37.1795 32.2213 40.9615 24.8693 40.9615C14.9599 40.9615 9.07824 33.9744 9.07824 23.9744C9.07824 13.7179 14.896 7.05128 24.6775 7.05128C32.4131 7.05128 37.208 11.0897 38.5505 17.8846L47.5648 16.5385C45.6469 6.41025 37.6555 0 24.9971 0C9.58969 0 0 9.74359 0 24.0385C0 38.141 8.82251 48.0769 24.6775 48.0769Z" fill="#FDFBFB"/>
<path d="M62.9373 23.2051V14.7436H55.4574V46.7949H63.5766V34.2308C63.5766 30.3846 64.2159 26.7308 66.7093 24.2308C68.4354 22.5 70.8648 21.4744 74.5728 21.4744C75.5318 21.4744 76.299 21.5385 77.1301 21.6667V14.0385C76.4268 13.9103 75.7875 13.9103 74.8285 13.9103C68.8829 13.9103 64.5995 17.6282 62.9373 23.2051Z" fill="#FDFBFB"/>
<path d="M117.302 32.8205V29.8718C117.302 19.6154 110.525 13.7821 99.0814 13.7821C87.8295 13.7821 80.5414 20.1282 80.5414 31.0897C80.5414 41.6026 87.7656 47.7564 99.465 47.7564C107.648 47.7564 113.53 44.6795 116.79 39.0385L110.397 36.0897C108.415 39.7436 104.707 41.6667 99.7208 41.6667C93.008 41.6667 88.7885 38.2692 88.4688 32.8205H117.302ZM109.119 27.3077V27.6282H88.4688C88.7885 22.3077 92.7522 19.0385 99.0175 19.0385C104.963 19.0385 109.119 21.9872 109.119 27.3077Z" fill="#FDFBFB"/>
<path d="M133.308 14.7436H125.445V46.7949H133.564V29.8718C133.564 23.9103 136.824 20.1923 142.067 20.1923C146.798 20.1923 149.291 23.141 149.291 28.9103V46.7949H157.41V29.5513C157.41 23.7179 160.607 20.1923 165.849 20.1923C170.708 20.1923 173.137 23.141 173.137 28.9103V46.7949H181.257V27.7564C181.257 18.7821 176.845 13.7821 168.854 13.7821C163.228 13.7821 158.945 16.3462 156.451 21.2179C154.597 16.3462 150.697 13.7821 145.008 13.7821C139.382 13.7821 135.418 16.2821 133.308 21.0897V14.7436Z" fill="#FDFBFB"/>
<path d="M201.54 47.7564C208.701 47.7564 213.687 45.2564 215.925 40.9615C215.989 43.0128 216.117 45.1282 216.436 46.7949H224.619C224.044 44.2308 223.788 41.2821 223.788 36.4744V27.3718C223.788 18.141 218.482 13.7821 207.166 13.7821C197.065 13.7821 190.352 18.2692 189.585 25.2564H198.088C198.599 21.4744 201.86 19.359 207.23 19.359C212.664 19.359 215.605 21.6026 215.605 26.282V26.9872L203.842 27.9487C197.768 28.5256 194.636 29.4872 192.334 30.9615C189.841 32.5641 188.562 35.1282 188.562 38.141C188.562 44.1026 193.613 47.7564 201.54 47.7564ZM204.289 42.2436C199.686 42.2436 197.001 40.5769 197.001 37.6923C197.001 34.7436 199.047 33.2692 204.737 32.6282L215.733 31.6026V33.3333C215.733 38.782 211.066 42.2436 204.289 42.2436Z" fill="#FDFBFB"/>
<path d="M256.28 60C264.08 60 268.939 56.859 272.583 48.5897L287.607 14.7436H278.976L270.09 36.4103C269.578 37.8205 269.322 38.7821 269.067 39.6795H268.939C268.683 38.6538 268.427 37.6923 267.916 36.3462L258.454 14.7436H249.312L264.847 46.6667L264.336 48.0769C262.801 51.6026 259.861 53.4615 255.385 53.4615C254.299 53.4615 253.212 53.3974 251.933 53.2051V59.6154C253.531 59.8718 255.066 60 256.28 60Z" fill="#FDFBFB"/>
<path d="M337.52 1.28205H314.505V46.7949H323.263V30H337.073C347.493 30 354.142 24.359 354.142 15.4487C354.142 6.79487 347.685 1.28205 337.52 1.28205ZM335.73 23.4615H323.263V7.88461H335.794C341.548 7.88461 345 10.7692 345 15.641C345 20.5128 341.484 23.4615 335.73 23.4615Z" fill="#FDFBFB"/>
<path d="M376.732 47.7564C388.048 47.7564 395.784 41.3462 395.784 30.7692C395.784 20.1923 388.048 13.7821 376.732 13.7821C365.48 13.7821 357.681 20.1923 357.681 30.7692C357.681 41.3462 365.48 47.7564 376.732 47.7564ZM376.732 41.7308C370.211 41.7308 366.12 37.8205 366.12 30.7692C366.12 23.6538 370.211 19.8077 376.732 19.8077C383.317 19.8077 387.409 23.6538 387.409 30.7692C387.409 37.8205 383.317 41.7308 376.732 41.7308Z" fill="#FDFBFB"/>
<path d="M411.447 14.7436H403.583V46.7949H411.702V29.8718C411.702 23.9103 414.963 20.1923 420.205 20.1923C424.936 20.1923 427.429 23.141 427.429 28.9103V46.7949H435.549V29.5513C435.549 23.7179 438.745 20.1923 443.988 20.1923C448.846 20.1923 451.276 23.141 451.276 28.9103V46.7949H459.395V27.7564C459.395 18.7821 454.984 13.7821 446.992 13.7821C441.366 13.7821 437.083 16.3462 434.59 21.2179C432.736 16.3462 428.836 13.7821 423.146 13.7821C417.52 13.7821 413.556 16.2821 411.447 21.0897V14.7436Z" fill="#FDFBFB"/>
<path d="M479.679 47.7564C486.839 47.7564 491.826 45.2564 494.063 40.9615C494.127 43.0128 494.255 45.1282 494.575 46.7949H502.758C502.182 44.2308 501.927 41.2821 501.927 36.4744V27.3718C501.927 18.141 496.62 13.7821 485.305 13.7821C475.203 13.7821 468.491 18.2692 467.723 25.2564H476.226C476.738 21.4744 479.998 19.359 485.368 19.359C490.803 19.359 493.743 21.6026 493.743 26.282V26.9872L481.98 27.9487C475.907 28.5256 472.774 29.4872 470.473 30.9615C467.979 32.5641 466.701 35.1282 466.701 38.141C466.701 44.1026 471.751 47.7564 479.679 47.7564ZM482.428 42.2436C477.825 42.2436 475.139 40.5769 475.139 37.6923C475.139 34.7436 477.185 33.2692 482.875 32.6282L493.871 31.6026V33.3333C493.871 38.782 489.204 42.2436 482.428 42.2436Z" fill="#FDFBFB"/>
<path d="M525.132 47.7564C531.397 47.7564 536.128 45.1923 538.685 40.7692V46.7949H546.485V0.320513H538.365V19.7436C535.616 15.7051 531.397 13.7821 525.643 13.7821C515.798 13.7821 508.957 20.7051 508.957 30.7692C508.957 40.8333 515.606 47.7564 525.132 47.7564ZM527.945 41.6667C521.488 41.6667 517.46 37.5 517.46 30.7051C517.46 23.8462 521.296 19.8077 527.753 19.8077C534.21 19.8077 538.493 23.7821 538.493 30V31.7308C538.493 37.6923 534.21 41.6667 527.945 41.6667Z" fill="#FDFBFB"/>
<path d="M568.021 47.7564C575.181 47.7564 580.168 45.2564 582.406 40.9615C582.47 43.0128 582.597 45.1282 582.917 46.7949H591.1C590.525 44.2308 590.269 41.2821 590.269 36.4744V27.3718C590.269 18.141 584.963 13.7821 573.647 13.7821C563.546 13.7821 556.833 18.2692 556.066 25.2564H564.569C565.08 21.4744 568.341 19.359 573.711 19.359C579.145 19.359 582.086 21.6026 582.086 26.282V26.9872L570.323 27.9487C564.249 28.5256 561.117 29.4872 558.815 30.9615C556.322 32.5641 555.043 35.1282 555.043 38.141C555.043 44.1026 560.094 47.7564 568.021 47.7564ZM570.77 42.2436C566.167 42.2436 563.482 40.5769 563.482 37.6923C563.482 34.7436 565.528 33.2692 571.218 32.6282L582.214 31.6026V33.3333C582.214 38.782 577.547 42.2436 570.77 42.2436Z" fill="#FDFBFB"/>
<path d="M636.187 47.7564C646.671 47.7564 651.914 43.5897 651.914 37.2436C651.914 32.0513 648.909 29.0385 641.685 28.0769L631.776 26.9231C628.515 26.5385 626.917 25.5128 626.917 23.3974C626.917 20.7692 629.41 19.4231 634.397 19.4231C640.47 19.4231 644.178 21.1538 646.544 24.2949L651.786 20.9615C649.229 16.4103 643.219 13.7821 634.972 13.7821C625.063 13.7821 619.373 17.6923 619.373 23.8462C619.373 29.2308 622.953 32.2436 629.858 33.141L639.319 34.2308C643.027 34.7436 644.37 35.5769 644.37 37.8205C644.37 40.4487 641.813 41.9872 636.634 41.9872C630.049 41.9872 625.702 39.8718 623.401 36.0256L617.839 39.1667C620.843 44.7436 627.109 47.7564 636.187 47.7564Z" fill="#FDFBFB"/>
<path d="M655.325 14.7436V20.5128H662.741V35.9615C662.741 42.8846 665.809 47.5 675.143 47.5C677.765 47.5 680.066 47.1795 681.856 46.6026V40.0641C680.514 40.3846 678.979 40.641 677.061 40.641C672.97 40.641 670.924 38.7821 670.924 34.6154V20.5128H681.856V14.7436H670.924V3.52564L662.741 6.73077V14.7436H655.325Z" fill="#FDFBFB"/>
<path d="M702.31 47.7564C708.384 47.7564 713.434 44.8077 715.48 39.9359V46.7949H723.344V14.7436H715.224V30.8974C715.224 36.4744 711.836 41.4103 704.931 41.4103C700.392 41.4103 696.748 39.0385 696.748 32.4359V14.7436H688.565V33.7179C688.565 42.7564 692.976 47.7564 702.31 47.7564Z" fill="#FDFBFB"/>
<path d="M747.33 47.7564C753.596 47.7564 758.326 45.1923 760.884 40.7692V46.7949H768.683V0.320513H760.564V19.7436C757.815 15.7051 753.596 13.7821 747.842 13.7821C737.996 13.7821 731.156 20.7051 731.156 30.7692C731.156 40.8333 737.805 47.7564 747.33 47.7564ZM750.143 41.6667C743.686 41.6667 739.658 37.5 739.658 30.7051C739.658 23.8462 743.494 19.8077 749.951 19.8077C756.408 19.8077 760.692 23.7821 760.692 30V31.7308C760.692 37.6923 756.409 41.6667 750.143 41.6667Z" fill="#FDFBFB"/>
<path d="M779.607 1.21795V9.42308H788.557V1.21795H779.607ZM779.991 14.7436V46.7949H788.11V14.7436H779.991Z" fill="#FDFBFB"/>
<path d="M814.949 47.7564C826.264 47.7564 834 41.3462 834 30.7692C834 20.1923 826.264 13.7821 814.949 13.7821C803.697 13.7821 795.897 20.1923 795.897 30.7692C795.897 41.3462 803.697 47.7564 814.949 47.7564ZM814.949 41.7308C808.428 41.7308 804.336 37.8205 804.336 30.7692C804.336 23.6538 808.428 19.8077 814.949 19.8077C821.533 19.8077 825.625 23.6538 825.625 30.7692C825.625 37.8205 821.533 41.7308 814.949 41.7308Z" fill="#FDFBFB"/>
</svg>
